<svg width="24" height="24" viewBox="0 0 24 24" fill="none" xmlns="http://www.w3.org/2000/svg">
<path d="M1 12C1 14.4477 1.13246 16.3463 1.46153 17.827C1.78807 19.2963 2.29478 20.2921 3.00136 20.9986C3.70794 21.7052 4.70365 22.2119 6.17298 22.5385C7.65366 22.8675 9.55232 23 12 23C14.4477 23 16.3463 22.8675 17.827 22.5385C19.2963 22.2119 20.2921 21.7052 20.9986 20.9986C21.7052 20.2921 22.2119 19.2963 22.5385 17.827C22.8675 16.3463 23 14.4477 23 12C23 9.55232 22.8675 7.65366 22.5385 6.17298C22.2119 4.70365 21.7052 3.70794 20.9986 3.00136C20.2921 2.29478 19.2963 1.78807 17.827 1.46153C16.3463 1.13246 14.4477 1 12 1C9.55232 1 7.65366 1.13246 6.17298 1.46153C4.70365 1.78807 3.70794 2.29478 3.00136 3.00136C2.29478 3.70794 1.78807 4.70365 1.46153 6.17298C1.13246 7.65366 1 9.55232 1 12Z" stroke="#78797B" stroke-width="2" stroke-linecap="round" stroke-linejoin="round"/>
<path d="M17.1579 8.76665C17.6002 7.56591 16.4326 6.39828 15.2319 6.84061L9.74781 8.86081C9.33558 9.01267 9.01064 9.33761 8.85878 9.74984L6.83858 15.2339C6.39625 16.4346 7.56389 17.6022 8.76462 17.1599L14.2487 15.1397C14.6609 14.9879 14.9858 14.6629 15.1377 14.2507L17.1579 8.76665Z" stroke="#78797B" stroke-width="2" stroke-linecap="round" stroke-linejoin="round"/>
</svg>
