<svg width="44" height="48" viewBox="0 0 44 48" fill="none" xmlns="http://www.w3.org/2000/svg">
<path d="M14.0556 24.1686C13.8935 24.1686 13.729 24.129 13.5766 24.0455L3.62778 18.5913C3.3082 18.4158 3.10938 18.0803 3.10938 17.7156V11.2114C3.10938 10.6598 3.55631 10.2129 4.10788 10.2129C4.65946 10.2129 5.10639 10.6598 5.10639 11.2114V17.1245L14.5367 22.2943C15.02 22.5595 15.1972 23.1663 14.9322 23.6499C14.7506 23.9809 14.4086 24.1686 14.0556 24.1686Z" fill="white"/>
<path d="M18.4822 31.8755C18.3486 31.8755 18.2148 31.8488 18.0883 31.7945L6.63171 26.8741C6.26478 26.7164 6.02723 26.3558 6.02723 25.9566V19.3167C6.02723 18.7652 6.47417 18.3183 7.02564 18.3183C7.5771 18.3183 8.02414 18.7653 8.02414 19.3167V25.2986L17.4838 29.3615V14.1792L2.84066 3.01516V9.094L13.4095 15.5622C13.8799 15.8498 14.0278 16.4644 13.7399 16.935C13.4518 17.4051 12.8373 17.5535 12.367 17.2653L1.32087 10.5052C1.02444 10.3239 0.84375 10.0012 0.84375 9.65368V0.998511C0.84375 0.618883 1.0589 0.272003 1.39917 0.103682C1.73943 -0.0648515 2.14541 -0.0255985 2.4476 0.204482L19.0876 12.8909C19.3353 13.0797 19.4806 13.3736 19.4806 13.6849V30.8771C19.4806 31.2128 19.312 31.5262 19.0314 31.7107C18.866 31.8199 18.6745 31.8755 18.4822 31.8755Z" fill="white"/>
<path d="M29.9371 24.1687C29.5842 24.1687 29.2422 23.981 29.0605 23.6499C28.7956 23.1663 28.9727 22.5595 29.456 22.2943L38.8865 17.1245V11.2114C38.8865 10.6598 39.3334 10.2129 39.8849 10.2129C40.4366 10.2129 40.8834 10.6598 40.8834 11.2114V17.7156C40.8834 18.0803 40.6845 18.4158 40.3651 18.5913L30.4163 24.0455C30.2637 24.1291 30.0994 24.1687 29.9371 24.1687Z" fill="white"/>
<path d="M25.514 31.8756C25.3216 31.8756 25.1301 31.82 24.9648 31.7108C24.6843 31.5261 24.5156 31.2129 24.5156 30.8772V13.685C24.5156 13.3736 24.6609 13.0798 24.9086 12.891L41.5484 0.20456C41.8508 -0.0256277 42.257 -0.0648806 42.597 0.10376C42.9372 0.27208 43.1524 0.618961 43.1524 0.998589V9.65376C43.1524 10.0013 42.9717 10.3239 42.6752 10.5053L31.6292 17.2654C31.1592 17.5534 30.5442 17.4055 30.2563 16.9351C29.9683 16.4644 30.1163 15.8498 30.5866 15.5623L41.1555 9.09408V3.01523L26.5125 14.1793V29.3617L35.9722 25.2988V19.3169C35.9722 18.7654 36.4191 18.3185 36.9707 18.3185C37.5223 18.3185 37.9692 18.7655 37.9692 19.3169V25.9567C37.9692 26.3559 37.7316 26.7166 37.3647 26.8743L25.9082 31.7947C25.7819 31.8489 25.6476 31.8756 25.514 31.8756Z" fill="white"/>
<path d="M18.4828 36.5872C17.9312 36.5872 17.4844 36.1404 17.4844 35.5887V30.8773C17.4844 30.3257 17.9313 29.8789 18.4828 29.8789C19.0343 29.8789 19.4813 30.3258 19.4813 30.8773V35.5887C19.4812 36.1404 19.0342 36.5872 18.4828 36.5872Z" fill="white"/>
<path d="M25.5141 36.5872C24.9626 36.5872 24.5156 36.1404 24.5156 35.5887V30.8773C24.5156 30.3257 24.9626 29.8789 25.5141 29.8789C26.0657 29.8789 26.5125 30.3258 26.5125 30.8773V35.5887C26.5126 36.1404 26.0657 36.5872 25.5141 36.5872Z" fill="white"/>
<path d="M31.3385 42.2935H12.6548C12.1032 42.2935 11.6562 41.8466 11.6562 41.295V38.6078C11.6562 36.3924 13.4588 34.5898 15.6742 34.5898H28.3189C30.5343 34.5898 32.3368 36.3924 32.3368 38.6078V41.295C32.3369 41.8466 31.8901 42.2935 31.3385 42.2935ZM13.6533 40.2966H30.34V38.6078C30.34 37.4933 29.4336 36.5868 28.3191 36.5868H15.6743C14.5597 36.5868 13.6533 37.4933 13.6533 38.6078V40.2966Z" fill="white"/>
<path d="M37.4841 48.0002H6.50622C5.95475 48.0002 5.50781 47.5532 5.50781 47.0016V44.6235C5.50781 42.2378 7.44883 40.2969 9.83444 40.2969H34.156C36.5416 40.2969 38.4826 42.2378 38.4826 44.6235V47.0016C38.4826 47.5532 38.0357 48.0002 37.4841 48.0002ZM7.50473 46.0032H36.4857V44.6235C36.4857 43.339 35.4405 42.2938 34.156 42.2938H9.83444C8.54996 42.2938 7.50473 43.339 7.50473 44.6235V46.0032Z" fill="white"/>
</svg>
