<svg width="49" height="48" viewBox="0 0 49 48" fill="none" xmlns="http://www.w3.org/2000/svg">
<path d="M45.9911 20.7379C45.7997 15.2835 43.5909 10.1831 39.7123 6.30449C35.6471 2.23851 30.2442 0 24.5 0C12.8981 0 3.41832 9.23446 3.00968 20.7379C1.23922 21.5247 0 23.2968 0 25.3563V31.0303C0 33.8165 2.26661 36.0839 5.05367 36.0839C6.85694 36.0839 8.32348 34.6173 8.32348 32.8141V23.5718C8.32348 21.8787 7.02496 20.498 5.374 20.334C5.98346 10.312 14.3263 2.34402 24.5 2.34402C29.6192 2.34402 34.4329 4.33951 38.056 7.96255C41.3828 11.2894 43.3299 15.6258 43.6229 20.3347C41.9735 20.5004 40.6773 21.8803 40.6773 23.5718V32.8133C40.6773 34.5204 41.9961 35.9097 43.6666 36.0542V38.3896C43.6666 41.0196 41.5266 43.1587 38.8967 43.1587H35.3643C35.1908 42.6634 34.919 42.2056 34.5376 41.8258C33.8696 41.1547 32.9789 40.7851 32.0304 40.7851H28.3895C27.8667 40.7851 27.3651 40.896 26.9057 41.1102C25.6524 41.686 24.843 42.9501 24.843 44.3308C24.843 45.2792 25.2126 46.17 25.8821 46.8365C26.5518 47.5077 27.4425 47.8772 28.3895 47.8772H32.0304C33.5399 47.8772 34.8705 46.9013 35.3666 45.5028H38.8967C42.8197 45.5028 46.0106 42.3118 46.0106 38.3896V35.6369C47.7702 34.8455 49 33.0797 49 31.0287V25.3548C49 23.2968 47.7608 21.5247 45.9911 20.7379ZM5.97876 23.5718V32.8133C5.97876 33.3234 5.56382 33.7392 5.05287 33.7392C3.55893 33.7392 2.34322 32.5234 2.34322 31.0295V25.3556C2.34322 23.8608 3.55893 22.6459 5.05287 22.6459C5.56382 22.6459 5.97876 23.0616 5.97876 23.5718ZM33.2063 44.5824C33.0899 45.1339 32.5945 45.5348 32.0296 45.5348H28.3887C28.0683 45.5348 27.7675 45.4098 27.5378 45.18C27.3112 44.9542 27.1862 44.6527 27.1862 44.3324C27.1862 43.8643 27.4605 43.4369 27.8901 43.2393C28.0433 43.1673 28.2112 43.1306 28.3887 43.1306H32.0296C32.3499 43.1306 32.6508 43.2549 32.8797 43.4846C33.1063 43.7104 33.2313 44.0119 33.2313 44.3324C33.232 44.4183 33.2227 44.5042 33.2063 44.5824ZM46.656 31.0295C46.656 32.5234 45.4403 33.7392 43.9463 33.7392C43.4362 33.7392 43.0204 33.3242 43.0204 32.8133V23.5718C43.0204 23.0616 43.4354 22.6459 43.9463 22.6459C45.4403 22.6459 46.656 23.8616 46.656 25.3556V31.0295Z" fill="white"/>
<path d="M32.0894 31.4339C34.828 31.4339 37.0555 29.2056 37.0555 26.4678V16.3489C37.0555 15.0254 36.5382 13.7783 35.5991 12.8391C34.6599 11.9001 33.4137 11.3828 32.0894 11.3828H16.9114C14.1728 11.3828 11.9453 13.6103 11.9453 16.3489V26.4678C11.9453 29.2064 14.1728 31.4339 16.9114 31.4339H17.0044V34.056C17.0044 35.0561 17.6005 35.9437 18.5225 36.318C18.8202 36.4375 19.1296 36.4969 19.4358 36.4969C20.0742 36.4969 20.6961 36.2437 21.1517 35.7726L25.5138 31.4339H32.0894ZM24.2051 29.4306L19.4843 34.1255C19.4632 34.1474 19.4476 34.1638 19.403 34.1443C19.3491 34.1224 19.3491 34.0872 19.3491 34.056V30.2619C19.3491 29.6149 18.8249 29.0899 18.1771 29.0899H16.9122C15.4659 29.0899 14.29 27.9133 14.29 26.4678V16.3489C14.29 14.9026 15.4659 13.7267 16.9122 13.7267H32.0902C32.7887 13.7267 33.4457 14.0003 33.9427 14.4964C34.4396 14.9933 34.7123 15.6511 34.7123 16.3489V26.4678C34.7123 27.9141 33.5356 29.0899 32.0902 29.0899H25.0316C24.7215 29.0899 24.4246 29.2126 24.2051 29.4306Z" fill="white"/>
<path d="M18.8072 19.8652C17.854 19.8652 17.0781 20.6419 17.0781 21.5944C17.0781 22.5468 17.8548 23.3235 18.8072 23.3235C19.7612 23.3235 20.5378 22.5468 20.5378 21.5944C20.5378 20.6419 19.762 19.8652 18.8072 19.8652Z" fill="white"/>
<path d="M24.5025 19.8652C23.5493 19.8652 22.7734 20.6419 22.7734 21.5944C22.7734 22.5468 23.5501 23.3235 24.5025 23.3235C25.4573 23.3235 26.2332 22.5468 26.2332 21.5944C26.2332 20.6419 25.4573 19.8652 24.5025 19.8652Z" fill="white"/>
<path d="M30.19 19.8652C29.2368 19.8652 28.4609 20.6419 28.4609 21.5944C28.4609 22.5468 29.2376 23.3235 30.19 23.3235C31.144 23.3235 31.9207 22.5468 31.9207 21.5944C31.9207 20.6419 31.144 19.8652 30.19 19.8652Z" fill="white"/>
</svg>
