<svg width="44" height="44" viewBox="0 0 44 44" fill="none" xmlns="http://www.w3.org/2000/svg">
<mask id="mask0_307_1765" style="mask-type:alpha" maskUnits="userSpaceOnUse" x="0" y="0" width="44" height="44">
<g clip-path="url(#clip0_307_1765)">
<path d="M34.3148 24.4667C33.9742 24.4665 33.6411 24.5673 33.3578 24.7563C33.0745 24.9454 32.8536 25.2143 32.7231 25.529C32.5927 25.8436 32.5585 26.1898 32.6249 26.5239C32.6912 26.858 32.8552 27.1649 33.0961 27.4058C33.3369 27.6467 33.6438 27.8106 33.9779 27.877C34.312 27.9435 34.6583 27.9093 34.9729 27.7788C35.2875 27.6484 35.5565 27.4275 35.7455 27.1442C35.9346 26.8608 36.0355 26.5278 36.0352 26.1872C36.0344 25.7312 35.8529 25.2941 35.5304 24.9716C35.2079 24.6492 34.7708 24.4676 34.3148 24.4667ZM34.3148 26.535C34.2462 26.5352 34.1791 26.5151 34.122 26.4773C34.0648 26.4394 34.0202 26.3854 33.9937 26.3221C33.9672 26.2589 33.9601 26.1892 33.9733 26.1219C33.9864 26.0546 34.0192 25.9927 34.0676 25.944C34.1159 25.8954 34.1775 25.8622 34.2447 25.8485C34.3119 25.8349 34.3817 25.8416 34.4451 25.8676C34.5086 25.8936 34.5629 25.9379 34.6011 25.9948C34.6394 26.0517 34.66 26.1186 34.6602 26.1872C34.6601 26.279 34.6237 26.367 34.559 26.4321C34.4944 26.4973 34.4066 26.5342 34.3148 26.535ZM31.5571 27.2219C31.2167 27.2216 30.8837 27.3224 30.6004 27.5114C30.3172 27.7003 30.0963 27.969 29.9657 28.2836C29.8352 28.598 29.8009 28.9442 29.867 29.2783C29.9333 29.6123 30.097 29.9191 30.3376 30.1601C30.5782 30.4011 30.8849 30.5653 31.2189 30.6319C31.5527 30.6986 31.899 30.6647 32.2136 30.5346C32.5284 30.4045 32.7974 30.184 32.9868 29.901C33.1761 29.618 33.2773 29.2852 33.2775 28.9447C33.2773 28.4882 33.0961 28.0506 32.7736 27.7276C32.4511 27.4046 32.0136 27.2227 31.5571 27.2219ZM31.5571 29.2901C31.4885 29.2904 31.4213 29.2703 31.3641 29.2323C31.3069 29.1943 31.2623 29.1402 31.2359 29.0767C31.2095 29.0134 31.2025 28.9436 31.2158 28.8762C31.2291 28.8089 31.2621 28.747 31.3107 28.6983C31.3593 28.6498 31.4211 28.6167 31.4885 28.6034C31.5559 28.59 31.6257 28.597 31.6891 28.6234C31.7525 28.6498 31.8066 28.6944 31.8446 28.7516C31.8826 28.8088 31.9028 28.876 31.9025 28.9447C31.9025 29.0363 31.866 29.124 31.8013 29.1888C31.7366 29.2536 31.6487 29.29 31.5571 29.2901ZM30.5224 26.1872C30.5219 25.8471 30.4206 25.5147 30.2313 25.2321C30.0419 24.9495 29.7731 24.7293 29.4587 24.5995C29.1443 24.4697 28.7985 24.4359 28.4649 24.5026C28.1314 24.5692 27.825 24.7333 27.5847 24.974C27.3443 25.2146 27.1807 25.5212 27.1145 25.8548C27.0483 26.1885 27.0826 26.5343 27.2128 26.8485C27.3431 27.1627 27.5636 27.4313 27.8465 27.6202C28.1293 27.8092 28.4618 27.91 28.802 27.91C29.2586 27.9095 29.6962 27.7278 30.0188 27.4047C30.3414 27.0816 30.5225 26.6438 30.5224 26.1872ZM28.802 26.535C28.7334 26.5352 28.6663 26.5151 28.6091 26.4773C28.552 26.4394 28.5074 26.3854 28.4809 26.3221C28.4545 26.2589 28.4473 26.1892 28.4605 26.1219C28.4736 26.0546 28.5064 25.9927 28.5547 25.944C28.6031 25.8954 28.6647 25.8622 28.7319 25.8485C28.7992 25.8349 28.8689 25.8416 28.9323 25.8676C28.9958 25.8936 29.05 25.9379 29.0883 25.9948C29.1266 26.0517 29.1472 26.1186 29.1474 26.1872C29.1476 26.2791 29.1113 26.3673 29.0467 26.4325C28.9819 26.4977 28.8939 26.5345 28.802 26.535ZM31.5571 25.1525C31.8974 25.1525 32.2301 25.0516 32.513 24.8625C32.796 24.6734 33.0165 24.4048 33.1467 24.0904C33.277 23.7761 33.3111 23.4301 33.2447 23.0963C33.1783 22.7626 33.0144 22.4561 32.7738 22.2155C32.5332 21.9748 32.2267 21.811 31.8929 21.7446C31.5592 21.6781 31.2133 21.7122 30.8989 21.8424C30.5845 21.9727 30.3158 22.1932 30.1267 22.4761C29.9377 22.759 29.8368 23.0916 29.8368 23.432C29.8373 23.8881 30.0187 24.3254 30.3413 24.6479C30.6638 24.9705 31.101 25.1519 31.5571 25.1525ZM31.5571 23.0866C31.6255 23.0866 31.6923 23.1068 31.7491 23.1447C31.806 23.1827 31.8503 23.2367 31.8764 23.2998C31.9025 23.3629 31.9094 23.4324 31.8961 23.4995C31.8827 23.5665 31.8498 23.628 31.8016 23.6763C31.7532 23.7247 31.6916 23.7576 31.6246 23.7709C31.5576 23.7842 31.4881 23.7774 31.425 23.7512C31.3619 23.725 31.3079 23.6807 31.27 23.6239C31.232 23.5671 31.2117 23.5003 31.2118 23.432C31.2119 23.3404 31.2483 23.2526 31.3131 23.1879C31.3778 23.1231 31.4656 23.0867 31.5571 23.0866ZM42.8789 35.9555C42.808 33.2945 41.8317 30.275 40.9704 27.611C40.6867 26.7335 40.4187 25.9049 40.1936 25.1239C38.2901 18.8052 37.045 17.2362 34.2467 16.8937C34.7909 14.7669 34.7719 12.5352 34.1916 10.418C33.6114 8.3009 32.4899 6.37133 30.9375 4.81918C29.3404 3.22237 27.3448 2.08254 25.1581 1.51822C22.9714 0.953886 20.6733 0.985676 18.503 1.61027C16.3327 2.23487 14.3694 3.42947 12.8172 5.06984C11.2649 6.71022 10.1804 8.7365 9.67653 10.938C9.22883 12.901 9.25472 14.9424 9.75214 16.8934C6.95429 17.2356 5.7088 18.8048 3.80296 25.1318C3.58038 25.9041 3.31312 26.732 3.02953 27.6085C2.16825 30.2725 1.19209 33.2928 1.12119 35.9542C1.03525 39.1769 2.33223 41.3648 4.97558 42.4568C6.24347 42.9654 7.64828 43.0195 8.95156 42.6101C10.3795 42.1747 11.6869 41.2381 12.7328 39.9012L15.8975 35.8501C16.5935 36.1791 17.3868 36.2383 18.1239 36.0161C18.861 35.7941 19.4896 35.3066 19.8881 34.6478H24.1119C24.5105 35.3065 25.139 35.7941 25.8761 36.0163C26.6132 36.2385 27.4066 36.1796 28.1027 35.851L31.2692 39.9016C32.3134 41.2383 33.6202 42.175 35.048 42.6105C35.6315 42.7892 36.2382 42.8804 36.8485 42.8813C37.5942 42.8839 38.3332 42.7398 39.0234 42.4574C41.6672 41.3653 42.9645 39.1781 42.8789 35.9555ZM11.1546 16.8109C10.9368 16.039 10.8015 15.2463 10.7507 14.4459H15.4144C15.4377 15.3079 15.5074 16.1681 15.623 17.0227C15.0915 16.8676 14.5395 16.7944 13.986 16.8054C12.9421 16.8054 11.6669 16.8063 11.1546 16.8109ZM33.2517 13.0709H28.5854C28.5444 11.4018 28.3205 9.74226 27.9179 8.12196H31.7573C32.6352 9.63219 33.1472 11.3271 33.2517 13.0709ZM27.2138 13.0709H22.6884V8.12196H26.4993C26.9337 9.73728 27.1737 11.3986 27.2138 13.0709ZM22.6884 6.74693V2.60045C23.7374 2.92701 24.7559 3.98335 25.5599 5.60989C25.7377 5.96997 25.9011 6.35059 26.0514 6.74693H22.6884ZM21.3134 2.59976V6.74693H17.9477C18.098 6.35059 18.2614 5.96997 18.4391 5.60998C19.2437 3.98215 20.2634 2.92529 21.3134 2.59976ZM21.3134 8.12196V13.0709H16.7865C16.8265 11.3987 17.0661 9.73728 17.5002 8.12196H21.3134ZM15.4149 13.0709H10.7473C10.852 11.3271 11.3637 9.63219 12.2416 8.12196H16.0816C15.6793 9.74226 15.4559 11.4019 15.4149 13.0709ZM17.1604 17.9132C16.9458 16.7689 16.8211 15.6097 16.7874 14.4459H21.3134V18.8833H18.1987C18.085 18.7761 17.9768 18.6722 17.8709 18.5706C17.6246 18.3345 17.3944 18.1136 17.1604 17.9132ZM18.6152 20.2583H25.3859V21.5343C25.3855 21.8732 25.2507 22.1982 25.011 22.4378C24.7714 22.6775 24.4465 22.8123 24.1075 22.8127H19.8911C19.5525 22.812 19.2279 22.677 18.9887 22.4374C18.7495 22.1976 18.6151 21.8729 18.6151 21.5343L18.6152 20.2583ZM26.1309 18.5703C26.0249 18.6721 25.9161 18.7761 25.8027 18.8833H22.6881V14.4459H27.2127C27.1789 15.6105 27.0537 16.7706 26.8384 17.9156C26.6055 18.1148 26.376 18.3351 26.1309 18.5703ZM28.5855 14.446H33.248C33.1972 15.2464 33.0619 16.0391 32.8441 16.811C32.3346 16.8065 31.0578 16.8055 30.0125 16.8055C29.4592 16.7946 28.9076 16.8681 28.3765 17.0235C28.4924 16.1686 28.5621 15.3083 28.5855 14.446ZM30.8171 6.74693H27.5111C27.3095 6.14989 27.0693 5.56658 26.792 5.00068C26.4587 4.31151 26.048 3.66261 25.5676 3.06658C27.2257 3.61977 28.7315 4.55287 29.965 5.79139C30.2666 6.09381 30.5511 6.41281 30.8171 6.74693ZM18.4309 3.06658C17.9506 3.66266 17.5398 4.31159 17.2065 5.00077C16.9292 5.56662 16.6891 6.14991 16.4876 6.74693H13.1814C13.4474 6.41281 13.7319 6.0938 14.0336 5.79139C15.267 4.55289 16.7729 3.6198 18.4309 3.06658ZM17.2261 34.7736C16.8815 34.7742 16.5446 34.6724 16.258 34.4814C15.9713 34.2904 15.7477 34.0186 15.6156 33.7005C15.4834 33.3823 15.4485 33.0321 15.5155 32.6942C15.5824 32.3563 15.748 32.0458 15.9914 31.802C16.2348 31.5582 16.5451 31.3922 16.8829 31.3248C17.2208 31.2574 17.571 31.2917 17.8894 31.4234C18.2077 31.5551 18.4798 31.7783 18.6712 32.0647C18.8626 32.3512 18.9649 32.6879 18.9649 33.0323C18.9643 33.4936 18.781 33.9358 18.4551 34.2622C18.1292 34.5886 17.6872 34.7725 17.2261 34.7736ZM25.0341 33.0323C25.0343 32.6883 25.1365 32.3521 25.3278 32.0661C25.5191 31.7801 25.7909 31.5573 26.1088 31.4258C26.4267 31.2942 26.7765 31.2598 27.1139 31.327C27.4514 31.3942 27.7613 31.5599 28.0046 31.8032C28.2478 32.0465 28.4136 32.3564 28.4807 32.6938C28.5479 33.0312 28.5135 33.381 28.382 33.6989C28.2504 34.0168 28.0276 34.2886 27.7416 34.4799C27.4557 34.6712 27.1194 34.7734 26.7754 34.7736C26.3137 34.7731 25.8711 34.5895 25.5447 34.263C25.2182 33.9366 25.0346 33.4941 25.0341 33.0323ZM38.4979 41.1864C36.4409 42.0372 34.0285 41.2005 32.3522 39.0551L29.1852 35.0033C29.5013 34.617 29.72 34.1604 29.8227 33.6718C29.9254 33.1833 29.9093 32.6773 29.7755 32.1963C29.6418 31.7154 29.3944 31.2735 29.0542 30.9082C28.7141 30.5428 28.2911 30.2645 27.8209 30.0968C27.3507 29.9291 26.8471 29.8769 26.3525 29.9445C25.8579 30.0121 25.3868 30.1976 24.9789 30.4853C24.5709 30.7731 24.2381 31.1547 24.0085 31.5979C23.7789 32.0412 23.6591 32.5332 23.6594 33.0323C23.6594 33.1135 23.6635 33.1936 23.6696 33.273H20.3296C20.3357 33.1935 20.3399 33.1135 20.3399 33.0323C20.3402 32.5332 20.2205 32.0411 19.9909 31.5978C19.7613 31.1545 19.4285 30.7729 19.0206 30.485C18.6126 30.1972 18.1415 30.0117 17.6468 29.9441C17.1522 29.8764 16.6486 29.9286 16.1783 30.0963C15.7081 30.264 15.2851 30.5423 14.9449 30.9077C14.6047 31.2731 14.3573 31.7149 14.2236 32.1959C14.0898 32.6769 14.0737 33.183 14.1764 33.6716C14.2792 34.1601 14.4978 34.6168 14.814 35.0032L11.6491 39.0546C9.97097 41.2002 7.55764 42.0367 5.50065 41.1858C1.0753 39.3586 2.28994 34.3669 4.33784 28.032C4.62461 27.1448 4.89548 26.3067 5.12184 25.5211C7.2066 18.6005 8.19967 18.2508 11.0219 18.188C11.2723 18.1834 12.325 18.1808 13.986 18.1808C15.4779 18.1808 15.9294 18.6141 16.919 19.5634C17.0221 19.6626 17.1287 19.7643 17.2401 19.8696V21.5343C17.2406 22.2375 17.52 22.9117 18.017 23.4091C18.5139 23.9065 19.1879 24.1865 19.8911 24.1877H24.1079C24.8113 24.1868 25.4856 23.907 25.983 23.4095C26.4804 22.9121 26.7601 22.2377 26.7609 21.5343V19.8692C26.8726 19.7637 26.9789 19.6618 27.0824 19.5625C28.0716 18.6135 28.5231 18.1804 30.0129 18.1804C31.674 18.1804 32.7266 18.183 32.9745 18.1875C35.7993 18.2501 36.7923 18.6001 38.8749 25.5127C39.1037 26.3071 39.375 27.1455 39.6621 28.034C41.71 34.368 42.9247 39.3586 38.4979 41.1864ZM14.1639 24.4667H13.6456V23.9485C13.6456 23.4922 13.4643 23.0546 13.1417 22.7319C12.819 22.4093 12.3814 22.2281 11.9252 22.2281C11.4689 22.2281 11.0313 22.4093 10.7087 22.7319C10.386 23.0546 10.2048 23.4922 10.2048 23.9485V24.4667H9.68643C9.23221 24.4699 8.79778 24.6526 8.47775 24.9749C8.15773 25.2972 7.97813 25.733 7.97813 26.1872C7.97813 26.6413 8.15773 27.0771 8.47775 27.3994C8.79778 27.7217 9.23221 27.9044 9.68643 27.9076H10.2048V28.4283C10.2048 28.8845 10.386 29.3221 10.7087 29.6448C11.0313 29.9674 11.4689 30.1487 11.9252 30.1487C12.3814 30.1487 12.819 29.9674 13.1417 29.6448C13.4643 29.3221 13.6456 28.8845 13.6456 28.4283V27.9076H14.1639C14.3908 27.9092 14.6158 27.8659 14.826 27.7801C15.0361 27.6944 15.2272 27.5679 15.3882 27.408C15.5493 27.2481 15.6771 27.0579 15.7644 26.8484C15.8516 26.6389 15.8964 26.4141 15.8964 26.1872C15.8964 25.9602 15.8516 25.7355 15.7644 25.5259C15.6771 25.3164 15.5493 25.1262 15.3882 24.9663C15.2272 24.8064 15.0361 24.6799 14.826 24.5942C14.6158 24.5084 14.3908 24.4651 14.1639 24.4667ZM14.1639 26.5326H12.9581C12.7757 26.5326 12.6008 26.605 12.4719 26.734C12.343 26.8629 12.2706 27.0377 12.2706 27.2201V28.4283C12.2706 28.5199 12.2342 28.6077 12.1694 28.6725C12.1046 28.7373 12.0167 28.7737 11.9252 28.7737C11.8336 28.7737 11.7457 28.7373 11.681 28.6725C11.6162 28.6077 11.5798 28.5199 11.5798 28.4283V27.2201C11.5798 27.0377 11.5074 26.8629 11.3785 26.734C11.2495 26.605 11.0746 26.5326 10.8923 26.5326H9.68643C9.64089 26.533 9.59579 26.5245 9.5537 26.5073C9.51153 26.4901 9.47333 26.4647 9.44113 26.4325C9.40901 26.4003 9.38357 26.3621 9.36641 26.3199C9.34925 26.2778 9.34059 26.2327 9.34111 26.1872C9.34118 26.0956 9.37755 26.0078 9.44231 25.9431C9.50706 25.8783 9.59484 25.8419 9.68643 25.8417H10.8923C11.0746 25.8417 11.2495 25.7693 11.3785 25.6403C11.5074 25.5114 11.5798 25.3366 11.5798 25.1542V23.9485C11.5798 23.8568 11.6162 23.769 11.681 23.7042C11.7457 23.6394 11.8336 23.6031 11.9252 23.6031C12.0167 23.6031 12.1046 23.6394 12.1694 23.7042C12.2342 23.769 12.2706 23.8568 12.2706 23.9485V25.1542C12.2706 25.3366 12.343 25.5114 12.4719 25.6403C12.6008 25.7693 12.7757 25.8417 12.9581 25.8417H14.1639C14.2545 25.8432 14.341 25.8802 14.4046 25.9448C14.4682 26.0094 14.5038 26.0965 14.5038 26.1872C14.5038 26.2778 14.4682 26.3649 14.4046 26.4295C14.341 26.4942 14.2545 26.5311 14.1639 26.5326Z" fill="#45F882"/>
</g>
</mask>
<g mask="url(#mask0_307_1765)">
<rect width="44" height="44" fill="white"/>
</g>
<defs>
<clipPath id="clip0_307_1765">
<rect width="44" height="44" fill="white"/>
</clipPath>
</defs>
</svg>
