<svg width="18" height="18" viewBox="0 0 18 18" fill="none" xmlns="http://www.w3.org/2000/svg">
<path d="M16.8653 8.2115H9.7642V1.11025C9.7642 0.620376 9.36648 0.222656 8.87644 0.222656C8.38657 0.222656 7.98885 0.620376 7.98885 1.11025V8.2115H0.887596C0.39772 8.2115 0 8.60922 0 9.0991C0 9.58914 0.39772 9.98686 0.887596 9.98686H7.98885V17.0879C7.98885 17.578 8.38657 17.9757 8.87644 17.9757C9.36648 17.9757 9.7642 17.578 9.7642 17.0879V9.98686H16.8653C17.3553 9.98686 17.753 9.58914 17.753 9.0991C17.753 8.60922 17.3553 8.2115 16.8653 8.2115Z" fill="white"/>
</svg>
