<svg width="24" height="27" viewBox="0 0 24 27" fill="none" xmlns="http://www.w3.org/2000/svg">
<path d="M1 13.0907C1 15.6435 1.0665 17.4627 1.28113 18.8161C1.49358 20.1557 1.83711 20.9395 2.31996 21.495C2.81162 22.0606 3.54214 22.5 4.75903 22.9649C5.66398 23.3106 6.75137 23.6407 8.10867 24.0527C8.59827 24.2013 9.12299 24.3606 9.68693 24.5351C11.7072 25.1603 13.1538 25.2955 14.1923 25.0966C15.1715 24.909 15.8493 24.4142 16.3628 23.5692C16.9059 22.6754 17.2748 21.3683 17.4967 19.5764C17.7171 17.7973 17.7826 15.6352 17.7826 13.0907C17.7826 10.5462 17.7171 8.38416 17.4967 6.60509C17.2748 4.81313 16.9059 3.50602 16.3628 2.6123C15.8493 1.76724 15.1715 1.27247 14.1923 1.08488C13.1538 0.885939 11.7072 1.02118 9.68692 1.64634C9.12307 1.82082 8.59843 1.98007 8.1089 2.12866C6.75149 2.54069 5.66403 2.87078 4.75903 3.21649C3.54214 3.68135 2.81162 4.12077 2.31996 4.68642C1.83711 5.24193 1.49358 6.02575 1.28114 7.36534C1.0665 8.71875 1 10.5379 1 13.0907Z" stroke="#78797B" stroke-width="2" stroke-linecap="round" stroke-linejoin="round"/>
<ellipse cx="1.04348" cy="1.04727" rx="1.04348" ry="1.04727" transform="matrix(-1 0 0 1 14.6094 12.2207)" fill="#78797B"/>
<path d="M17.7383 22.5169C22.9557 22.5169 22.9557 21.2436 22.9557 13.261C22.9557 5.27838 22.9557 3.66602 17.7383 3.66602" stroke="#78797B" stroke-width="2" stroke-linecap="round" stroke-linejoin="round"/>
</svg>
